<svg xmlns="http://www.w3.org/2000/svg" width="128.697" height="28.212" viewBox="0 0 1801.77 394.98"><defs><style>.cls-1{fill:#3a3a3a;}.cls-2{fill:#e65850;}</style></defs><g id="koijam-logo-hor_SVG_" data-name="koijam-logo-hor[SVG]"><path class="cls-1" d="M678.82,349.09,587.47,221.74l-30.6,31v96.3h-58.5v-306h58.5v128.7L689.62,36.34l43.2,33.3-105.3,109.8,124.2,169.65Z"/><path class="cls-1" d="M868.27,354.49q-35.57,0-61.88-13.95a96.85,96.85,0,0,1-40.5-39.83q-14.17-25.86-14.17-60.52,0-35.1,14.62-61a101.6,101.6,0,0,1,40.73-40.05Q833.16,125,868.27,125q36,0,61.87,14a99.46,99.46,0,0,1,40.28,39.6q14.39,25.65,14.4,60.75,0,34.65-14.4,60.75a99.43,99.43,0,0,1-40.73,40.27Q903.37,354.49,868.27,354.49Zm.45-49.95q16.63,0,29.25-8.55a56.78,56.78,0,0,0,19.57-23.4,77.38,77.38,0,0,0,7-33.3q0-18.9-7.2-33.3a57.57,57.57,0,0,0-19.8-22.73,51.15,51.15,0,0,0-28.8-8.32,51.9,51.9,0,0,0-29.48,8.55,56.43,56.43,0,0,0-19.8,23.17q-7,14.64-7.42,33.53,0,18.9,7.2,33.3a55.91,55.91,0,0,0,20.25,22.72A53.14,53.14,0,0,0,868.72,304.54Z"/><path class="cls-1" d="M1026.21,90.56a32.51,32.51,0,0,1-9.45-23.62,31.78,31.78,0,0,1,9.45-23.4,31.25,31.25,0,0,1,23-9.45,32.76,32.76,0,0,1,23.4,9.45,31.05,31.05,0,0,1,9.9,23.4,32.12,32.12,0,0,1-9.68,23.62,32.85,32.85,0,0,1-46.57,0Zm-5.85,258.53V130.84h58.95V349.09Z"/><path class="cls-1" d="M1143.66,43.09h58.5v275.4q0,20.7-6.53,34.42t-21.82,23.4q-15.32,9.68-42.3,18.68l-23.4-42.75q16.2-5.85,23.85-10.58t9.45-11.92a99.51,99.51,0,0,0,2.25-19.35Z"/><path class="cls-1" d="M1250.3,144.79q8.55-5.85,23.4-10.13a290.83,290.83,0,0,1,30.38-7q15.53-2.7,24.52-2.7,26.1,0,47.7,10.35A89,89,0,0,1,1411,163.91q13,18.22,13,41.63V349.09h-38.7l-9.9-23.4a115.49,115.49,0,0,1-26.55,20.7,62.3,62.3,0,0,1-31,8.1q-40,0-59.4-19.58t-19.35-51.07q0-33.75,23-51.53t59.85-18.22h42.75v-.45q-.45-16.2-9.67-25.43T1329.5,179a138,138,0,0,0-33.3,4.5,186.91,186.91,0,0,0-30.15,9.9Zm42.53,150.75a31.69,31.69,0,0,0,9.9,9,26.39,26.39,0,0,0,13.72,3.6,62.53,62.53,0,0,0,24.75-5.4,80.11,80.11,0,0,0,23.85-16.2v-33.3H1321q-15.3,0-23.62,9.45T1289,283.84A19.77,19.77,0,0,0,1292.83,295.54Z"/><path class="cls-1" d="M1464.5,349.09V130.84h38.25l9.9,22.95a268,268,0,0,1,28.57-16.43A140.13,140.13,0,0,1,1568.9,127a98.41,98.41,0,0,1,23.4-3.37q26.09,0,41.4,9.45t22,27.22q6.75,17.79,6.75,43V349.54h-59v-135q0-13.95-2.48-23.18t-8.32-14.17q-5.85-5-15.75-4.95a49.71,49.71,0,0,0-19.8,4,89.86,89.86,0,0,0-18,10.35q-8.57,6.3-16.2,11.7V349.09Zm187.65-195.3a203.16,203.16,0,0,1,27.9-16.43A147.39,147.39,0,0,1,1707.72,127a97.1,97.1,0,0,1,23.63-3.37q26.09,0,41.4,9.45t22,27.22q6.75,17.79,6.75,43V349.54h-58.5v-135q0-13.95-2.7-23.18t-8.55-14.17q-5.85-5-15.75-4.95a49.71,49.71,0,0,0-19.8,4A96.23,96.23,0,0,0,1678,186.64q-8.77,6.3-16,11.7Z"/><path class="cls-2" d="M371.51,18.57c-31.16-14.83-63.17-19.64-115-14.64,26.82,81.19,65.37,291-77.57,383.18C434.51,386.07,394.25,121.24,371.51,18.57Z"/><path class="cls-2" d="M25.13,291.39S-6.49,327.51,3.42,387c0,0,158.42,10.14,211.36-107.46C156.42,302.76,92.76,306.35,25.13,291.39Z"/><path class="cls-2" d="M213.87,18.51c-1.41.26-104.91,13.67-117.6,236.78,80.7,4.22,136.56-35.5,136.56-35.5C244.73,149.62,230.47,71,213.87,18.51Z"/></g></svg>