<svg xmlns="http://www.w3.org/2000/svg" width="48.265" height="54.888" viewBox="0 0 579.19 638.66"><defs><style>.cls-1{fill:#3a3a3a;}.cls-2{fill:#e65850;}.cls-3{fill:#fafafa;}</style></defs><g id="Backgrounds"><rect class="cls-1" y="0.01" width="579.19" height="638.66"/></g><g id="koijam-logo-white_SVG_" data-name="koijam-logo-white[SVG]"><path class="cls-2" d="M462.86,32.36c-31.15-14.83-63.16-19.63-115-14.63,26.81,81.19,65.37,291-77.58,383.18C525.86,399.87,485.6,135,462.86,32.36Z"/><path class="cls-2" d="M116.49,305.18s-31.63,36.13-21.72,95.66c0,0,158.43,10.14,211.36-107.47C247.78,316.56,184.11,320.14,116.49,305.18Z"/><path class="cls-2" d="M305.23,32.31c-1.42.25-104.92,13.67-117.61,236.78,80.7,4.22,136.56-35.5,136.56-35.5C336.08,163.42,321.82,84.81,305.23,32.31Z"/><path class="cls-3" d="M80.37,617.67l-40.6-56.6-13.6,13.8v42.8H.17v-136h26v57.2l59-60.2,19.2,14.8-46.8,48.8,55.2,75.4Z"/><path class="cls-3" d="M164.57,620.07q-15.81,0-27.5-6.2a43,43,0,0,1-18-17.7q-6.3-11.5-6.3-26.9,0-15.6,6.5-27.1a45.07,45.07,0,0,1,18.1-17.8q11.59-6.3,27.2-6.3,16,0,27.5,6.2a44.21,44.21,0,0,1,17.9,17.6q6.39,11.4,6.4,27,0,15.4-6.4,27a44.21,44.21,0,0,1-18.1,17.9Q180.17,620.07,164.57,620.07Zm.2-22.2a22.64,22.64,0,0,0,13-3.8,25.23,25.23,0,0,0,8.7-10.4,34.48,34.48,0,0,0,3.1-14.8,32.73,32.73,0,0,0-3.2-14.8,25.56,25.56,0,0,0-8.8-10.1,22.68,22.68,0,0,0-12.8-3.7,23.08,23.08,0,0,0-13.1,3.8,25,25,0,0,0-8.8,10.3,36.15,36.15,0,0,0-3.3,14.9,32.6,32.6,0,0,0,3.2,14.8,24.9,24.9,0,0,0,9,10.1A23.62,23.62,0,0,0,164.77,597.87Z"/><path class="cls-3" d="M234.76,502.77a14.47,14.47,0,0,1-4.2-10.5,14.13,14.13,0,0,1,4.2-10.4,13.89,13.89,0,0,1,10.2-4.2,14.55,14.55,0,0,1,10.4,4.2,13.82,13.82,0,0,1,4.4,10.4,14.28,14.28,0,0,1-4.3,10.5,14.61,14.61,0,0,1-20.7,0Zm-2.6,114.9v-97h26.2v97Z"/><path class="cls-3" d="M287,481.67h26v122.4q0,9.2-2.9,15.3a25.3,25.3,0,0,1-9.7,10.4q-6.8,4.29-18.8,8.3l-10.4-19a60.51,60.51,0,0,0,10.6-4.7,8.7,8.7,0,0,0,4.2-5.3,43.51,43.51,0,0,0,1-8.6Z"/><path class="cls-3" d="M334.36,526.87a36.59,36.59,0,0,1,10.4-4.5,127.28,127.28,0,0,1,13.5-3.1,67.46,67.46,0,0,1,10.9-1.2,48.38,48.38,0,0,1,21.2,4.6,39.61,39.61,0,0,1,15.4,12.7,31,31,0,0,1,5.8,18.5v63.8h-17.2l-4.4-10.4a51.35,51.35,0,0,1-11.8,9.2,27.71,27.71,0,0,1-13.8,3.6q-17.81,0-26.4-8.7t-8.6-22.7q0-15,10.2-22.9t26.6-8.1h19v-.2q-.2-7.2-4.3-11.3t-11.3-4.1a61.48,61.48,0,0,0-14.8,2,82.85,82.85,0,0,0-13.4,4.4Zm18.9,67a14.14,14.14,0,0,0,4.4,4,11.7,11.7,0,0,0,6.1,1.6,27.78,27.78,0,0,0,11-2.4,35.6,35.6,0,0,0,10.6-7.2v-14.8h-19.6q-6.79,0-10.5,4.2a13.84,13.84,0,0,0-3.7,9.4A8.83,8.83,0,0,0,353.26,593.87Z"/><path class="cls-3" d="M429.56,617.67v-97h17l4.4,10.2a118.68,118.68,0,0,1,12.7-7.3A61.78,61.78,0,0,1,476,519a43.74,43.74,0,0,1,10.4-1.5q11.59,0,18.4,4.2a23.61,23.61,0,0,1,9.8,12.1q3,7.9,3,19.1v65h-26.2v-60a40.69,40.69,0,0,0-1.1-10.3,12.17,12.17,0,0,0-3.7-6.3,10.48,10.48,0,0,0-7-2.2,22.1,22.1,0,0,0-8.8,1.8,39.81,39.81,0,0,0-8,4.6q-3.81,2.81-7.2,5.2v67Zm83.4-86.8a90.23,90.23,0,0,1,12.4-7.3,64.65,64.65,0,0,1,12.3-4.6,43.14,43.14,0,0,1,10.5-1.5q11.6,0,18.4,4.2a23.61,23.61,0,0,1,9.8,12.1q3,7.9,3,19.1v65h-26v-60a37.32,37.32,0,0,0-1.2-10.3,12.7,12.7,0,0,0-3.8-6.3,10.48,10.48,0,0,0-7-2.2,22.1,22.1,0,0,0-8.8,1.8,42.57,42.57,0,0,0-8.1,4.6q-3.9,2.81-7.1,5.2Z"/></g></svg>