<svg id="icon-search" xmlns="http://www.w3.org/2000/svg" viewBox="0 0 49.78 49.11"><defs><style>.cls-1{fill:#e65850;}.cls-2{fill:#fff;}</style></defs><rect id="bg-rectangle" class="cls-1" width="49.78" height="49.11"/><path id="icon" class="cls-2" d="M35.32,24a1.92,1.92,0,0,0-1.91,1.68c-.69,3.11-3.65,7.84-9.52,7.84a9.52,9.52,0,1,1,5.68-17.14H27.7a1.91,1.91,0,1,0,0,3.81h5.71a1.91,1.91,0,0,0,1.91-1.9V12.57a1.91,1.91,0,0,0-3.81,0v.49a13.33,13.33,0,1,0-7.62,24.27c9.5,0,13.33-9,13.33-11.31A1.89,1.89,0,0,0,35.32,24Z" transform="translate(1 0.67)"/></svg>