<svg id="icon-game" xmlns="http://www.w3.org/2000/svg" viewBox="0 0 49.78 49.11"><defs><style>.cls-1{fill:#e66450;}.cls-2{fill:#fff;}</style></defs><rect id="bg-rectangle" class="cls-1" width="49.78" height="49.11"/><path class="cls-2" d="M32.85,15.28c-3-.89-4,.81-8.21.81s-5.19-1.71-8.22-.81-4.53,4.08-6,10S9.29,35.6,11,36.4s3.58-1,5.4-3.31c1.47-1.78,2.2-1.9,8.26-1.9s6.68,0,8.26,1.9c1.81,2.27,3.72,4.11,5.4,3.31s2-5.11.52-11.08S35.87,16.19,32.85,15.28Zm-15.75,11a2.67,2.67,0,1,1,2.65-2.67A2.67,2.67,0,0,1,17.1,26.32ZM28.26,25a1.31,1.31,0,1,1,1.31-1.31A1.31,1.31,0,0,1,28.26,25Zm2.85,2.86a1.31,1.31,0,1,1,1.31-1.31A1.3,1.3,0,0,1,31.11,27.82Zm0-5.72a1.31,1.31,0,1,1,1.31-1.31A1.31,1.31,0,0,1,31.11,22.1ZM34,25a1.31,1.31,0,1,1,1.3-1.31A1.3,1.3,0,0,1,34,25Z" transform="translate(1 0.67)"/></svg>